<svg xmlns="http://www.w3.org/2000/svg" viewBox="0 0 1080 1350" role="img" aria-label="New Hira custom advertisement poster">
  <defs>
    <linearGradient id="bg" x1="0" y1="0" x2="0" y2="1">
      <stop offset="0" stop-color="#071307"/>
      <stop offset="0.52" stop-color="#11220b"/>
      <stop offset="1" stop-color="#050706"/>
    </linearGradient>
    <radialGradient id="sun" cx="65%" cy="36%" r="55%">
      <stop offset="0" stop-color="#f6b344" stop-opacity="0.75"/>
      <stop offset="0.45" stop-color="#94c31e" stop-opacity="0.22"/>
      <stop offset="1" stop-color="#000" stop-opacity="0"/>
    </radialGradient>
    <filter id="shadow" x="-20%" y="-20%" width="140%" height="140%">
      <feDropShadow dx="0" dy="18" stdDeviation="12" flood-color="#000" flood-opacity="0.45"/>
    </filter>
  </defs>
  <rect width="1080" height="1350" fill="url(#bg)"/>
  <rect width="1080" height="1350" fill="url(#sun)"/>
  <path d="M0 0h1080v132H0z" fill="#fff"/>
  <path d="M0 132C210 98 316 90 491 113c211 29 383 3 589-67v86H0z" fill="#91c51b" opacity="0.95"/>
  <text x="60" y="82" font-family="Arial, Helvetica, sans-serif" font-weight="900" font-size="46" fill="#c4111f">NEW HIRA</text>
  <text x="60" y="112" font-family="Arial, Helvetica, sans-serif" font-weight="800" font-size="22" fill="#111">CROP CHALLENGERS • NABHA</text>
  <g transform="translate(785,166)" filter="url(#shadow)">
    <circle r="108" cx="115" cy="115" fill="#050505" stroke="#e7c565" stroke-width="14"/>
    <text x="115" y="77" text-anchor="middle" font-family="Arial" font-weight="900" font-size="24" fill="#e7c565">FARMERS'</text>
    <text x="115" y="122" text-anchor="middle" font-family="Arial" font-weight="900" font-size="52" fill="#fff">CHOICE</text>
    <text x="115" y="163" text-anchor="middle" font-family="Arial" font-weight="900" font-size="22" fill="#e7c565">COMBINE</text>
  </g>
  <text x="60" y="260" font-family="Arial, Helvetica, sans-serif" font-weight="900" font-style="italic" font-size="76" fill="#fff">NEW HIRA 985</text>
  <text x="60" y="345" font-family="Arial, Helvetica, sans-serif" font-weight="900" font-size="74" fill="#9fd31d">HIGH PERFORMANCE</text>
  <text x="60" y="426" font-family="Arial, Helvetica, sans-serif" font-weight="900" font-size="72" fill="#fff">COMBINE HARVESTER</text>
  <rect x="60" y="470" width="510" height="80" rx="14" fill="#194f16" stroke="#a9d738" stroke-width="3"/>
  <text x="82" y="523" font-family="Arial" font-size="32" font-weight="900" fill="#fff">PADDY • WHEAT • MAIZE</text>
  <g transform="translate(60 610)">
    <g><circle cx="26" cy="26" r="26" fill="#9fd31d"/><text x="64" y="36" font-family="Arial" font-size="31" font-weight="800" fill="#fff">BS IV engine & field-ready performance</text></g>
    <g transform="translate(0 82)"><circle cx="26" cy="26" r="26" fill="#9fd31d"/><text x="64" y="36" font-family="Arial" font-size="31" font-weight="800" fill="#fff">Low grain loss, high output harvesting</text></g>
    <g transform="translate(0 164)"><circle cx="26" cy="26" r="26" fill="#9fd31d"/><text x="64" y="36" font-family="Arial" font-size="31" font-weight="800" fill="#fff">AC cabin, camera screen & operator comfort</text></g>
    <g transform="translate(0 246)"><circle cx="26" cy="26" r="26" fill="#9fd31d"/><text x="64" y="36" font-family="Arial" font-size="31" font-weight="800" fill="#fff">Nabha service support & spare parts</text></g>
  </g>
  <g transform="translate(60 990)">
    <rect width="960" height="142" rx="22" fill="#fff" opacity="0.96"/>
    <text x="30" y="58" font-family="Arial" font-size="24" font-weight="800" fill="#111">PRICE STARTS FROM</text>
    <text x="30" y="114" font-family="Arial" font-size="56" font-weight="900" fill="#111">₹28,00,000*</text>
    <line x1="365" y1="25" x2="365" y2="120" stroke="#c8c8c8" stroke-width="2"/>
    <text x="400" y="59" font-family="Arial" font-size="31" font-weight="900" fill="#194f16">SMS option • 4×4 option</text>
    <text x="400" y="104" font-family="Arial" font-size="29" font-weight="800" fill="#111">Ask for latest ex-factory quote</text>
  </g>
  <g transform="translate(60 1170)">
    <rect width="960" height="105" rx="22" fill="#91c51b"/>
    <text x="42" y="66" font-family="Arial" font-size="37" font-weight="900" fill="#071307">CALL / WHATSAPP: +91 92161 07700</text>
    <text x="590" y="66" font-family="Arial" font-size="37" font-weight="900" fill="#071307">01765 509077</text>
  </g>
  <text x="60" y="1312" font-family="Arial" font-size="20" fill="#eee">*Indicative advertising price. Final quotation, options, taxes and availability to be confirmed by New Hira.</text>
</svg>
